# xmcd
#
# Track frame offsets:
# 182
# 18542
# 38595
# 56342
# 85215
# 100667
# 120490
# 138987
# 167162
# 184737
#
# Disc length: 2663 seconds
#
# Revision: 5
# Processed by: cddbd v1.5.2PL0 Copyright (c) Steve Scherf et al.
# Submitted via: TinyPlayer 2.8
#
DISCID=760a650a
DTITLE=Rory Gallagher - Against the Grain
DYEAR=1975
DGENRE=Blues Rock
TTITLE0=Let Me In
TTITLE1=Cross Me Off Your List
TTITLE2=Ain't Too Good
TTITLE3=Souped-Up Ford
TTITLE4=Bought and Sold
TTITLE5=I Take What I Want
TTITLE6=Lost at Sea
TTITLE7=All Around Man
TTITLE8=Out on the Western Plain
TTITLE9=At the Bottom
EXTD=Location:  - UPC: 5017615623321 - Catalogue number: CLACD 233 - Label: Castle Communications - ASIN: B00002432N - Release Date: 1994 04 26 - Discogs: a373460,m36265,r1310827 - MUSICBRAINZ_ALBUMID: c55a180a-2056-3788-9760-db649376d1f2 - AMG: p4333,r7945;Re-
EXTD=released: 1991;
EXTT0=
EXTT1=
EXTT2=
EXTT3=
EXTT4=
EXTT5=
EXTT6=
EXTT7=
EXTT8=
EXTT9=
PLAYORDER=
